<?xml version="1.0" encoding="UTF-8" standalone="no"?>
<!-- Created with Inkscape (http://www.inkscape.org/) -->

<svg
   width="1914.7081"
   height="538.67786"
   viewBox="0 0 506.59986 142.52518"
   version="1.1"
   id="svg5"
   xml:space="preserve"
   xmlns:inkscape="http://www.inkscape.org/namespaces/inkscape"
   xmlns:sodipodi="http://sodipodi.sourceforge.net/DTD/sodipodi-0.dtd"
   xmlns="http://www.w3.org/2000/svg"
   xmlns:svg="http://www.w3.org/2000/svg"><sodipodi:namedview
     id="namedview7"
     pagecolor="#ffffff"
     bordercolor="#333"
     borderopacity="0.25"
     inkscape:showpageshadow="2"
     inkscape:pageopacity="0.0"
     inkscape:pagecheckerboard="0"
     inkscape:deskcolor="#d1d1d1"
     inkscape:document-units="px"
     showgrid="false" /><defs
     id="defs2" /><g
     inkscape:label="Layer 1"
     inkscape:groupmode="layer"
     id="layer1"
     transform="translate(0.24331867,-6.6162239)"><path
       style="fill:#333;stroke-width:0.806144"
       d="m 478.94263,135.37472 c -8.28585,-0.77994 -7.90504,-2.37917 0.9558,-4.01355 9.37212,-1.72871 27.33067,-1.17652 26.42511,0.81251 -1.0847,2.38229 -16.69345,4.20708 -27.38091,3.20104 z M 67.50564,148.09856 c -57.8074931,1.32386 -75.8328504,1.38142 -64.5550761,0.20611 6.9967736,-0.72916 54.9287401,-2.51619 222.5239061,-8.29627 231.10317,-7.97037 223.33652,-7.73631 233.38753,-7.0335 8.84988,0.61882 9.84621,1.19115 3.39381,1.94961 -5.30588,0.62369 -352.10142,12.19733 -394.75017,13.17405 z"
       id="path302" /><path
       style="fill:#333;stroke-width:0.833259"
       d="m 480.13508,124.88803 c -30.3139,0.44558 -137.54467,4.23416 -278.06044,9.8242 -135.254611,5.38074 -146.509638,5.89019 -143.228302,6.48322 3.444412,0.62249 3.283143,0.6468 -4.917377,0.74132 -4.663235,0.0538 -13.882907,0.17771 -20.48824,0.27546 -13.458071,0.1992 -29.6424436,-0.35883 -21.674502,-0.7473 2.476149,-0.12154 4.821679,-0.41731 5.212171,-0.65906 2.399525,-1.48553 385.30463,-18.43474 425.61444,-18.8397 31.94097,-0.32092 44.4838,-0.24692 47.37294,0.2795 1.56701,0.28551 5.23311,0.69113 8.14694,0.90136 2.91378,0.21024 5.67024,0.572 6.12536,0.80394 0.92028,0.46892 -3.229,0.63023 -24.10299,0.93707 z m -97.80657,1.2741 c -3.30327,0.0337 -8.70167,0.25811 -11.99634,0.49862 -3.29468,0.24051 -0.59201,0.21293 6.00598,-0.0613 6.598,-0.27424 9.29363,-0.47106 5.99036,-0.43731 z m -55.68743,1.81572 c -9.07974,0.29182 -24.32214,0.92526 -33.872,1.40732 -9.5498,0.48231 -2.12093,0.24341 16.50868,-0.53054 18.62961,-0.77393 26.44313,-1.16845 17.36332,-0.87677 z"
       id="path316" /><path
       style="fill:#333;stroke-width:1.28486"
       d="m 294.69732,129.34254 c 0,-0.55842 7.98634,-15.1818 17.74743,-32.496441 17.44727,-30.94874 17.71062,-31.53675 15.57376,-34.76781 -1.82129,-2.75382 -1.87603,-3.59773 -0.33779,-5.20629 1.00976,-1.05581 3.32948,-1.9197 5.15492,-1.9197 2.87668,0 4.26014,-1.75469 10.38092,-13.166016 3.88407,-7.241318 7.59024,-13.166053 8.23591,-13.166053 2.03485,0 1.34506,1.827058 -5.48851,14.537891 l -6.66257,12.392658 7.21111,5.68533 c 8.34557,6.57972 10.46881,6.84753 30.41524,3.8358 20.04197,-3.02613 32.93441,-9.49987 37.93173,-19.046962 C 426.15051,24.454211 394.60443,4.2270655 357.48249,9.2352775 342.61116,11.241612 322.75175,17.230078 310.74815,23.327704 c -5.63206,2.860962 -15.58193,9.589743 -22.11077,14.952753 -11.27045,9.257972 -14.24583,12.599986 -9.94126,11.166594 3.36003,-1.118919 3.96161,1.916408 1.49203,7.528048 -1.91182,4.34407 -2.03431,5.62003 -0.61296,6.38234 1.30522,0.70005 1.0769,1.06104 -0.86078,1.36072 -1.45056,0.22436 -6.56631,3.99963 -11.36841,8.38948 -6.50142,5.94332 -8.61359,8.69426 -8.27117,10.77221 0.60421,3.66574 5.4455,3.27869 11.82758,-0.94559 5.09923,-3.37516 7.70145,-3.00157 3.97595,0.5708 -3.25927,3.12529 -12.68152,6.61428 -15.40928,5.70596 -1.25069,-0.41665 -2.59656,-1.8277 -2.99083,-3.13596 -0.68889,-2.28604 -0.87865,-2.26058 -4.87012,0.65398 -5.2575,3.83906 -7.25418,3.24319 -7.25418,-2.16484 0,-4.76637 -0.27837,-4.70126 -8.68059,2.02999 -3.25499,2.60768 -4.83894,3.22351 -5.58758,2.17231 -0.73868,-1.03714 -2.29236,-1.15649 -5.30238,-0.40712 -2.84618,0.70832 -5.33762,0.5865 -7.51545,-0.36734 -2.62964,-1.15194 -4.00253,-1.07068 -7.11931,0.42116 -3.52376,1.68674 -4.01323,1.67276 -5.59651,-0.16006 -1.18996,-1.37745 -2.36002,-1.66519 -3.72452,-0.91598 -3.03112,1.66426 -8.19074,1.33714 -9.03532,-0.57283 -0.41394,-0.93601 -0.0547,-2.95584 0.7985,-4.48843 0.85942,-1.54406 -0.93665,-0.38497 -4.02785,2.59952 -5.40195,5.21523 -6.1791,5.33854 -5.65854,0.89766 0.28984,-2.47377 0.33572,-2.46712 -5.28335,-0.76719 -2.41335,0.73005 -6.22403,2.92077 -8.46822,4.86825 -2.94248,2.55344 -5.14179,3.43493 -7.88651,3.16103 -2.14337,-0.21398 -3.65556,-1.03346 -3.46141,-1.87596 0.18967,-0.82288 -0.85468,-1.49616 -2.32079,-1.49616 -1.49065,0 -3.06798,-1.10022 -3.57854,-2.49616 l -0.91295,-2.49615 -3.24764,2.64755 c -3.23162,2.63462 -7.52571,2.5444 -7.52571,-0.15778 0,-1.02079 -0.51764,-1.00803 -1.98551,0.0488 -1.09202,0.7865 -3.72991,1.25638 -5.86191,1.04425 -3.95201,-0.39308 -4.44145,-1.6271 -2.52693,-6.37026 0.53537,-1.32645 -1.40381,-0.0886 -4.34915,2.77569 -2.92344,2.84319 -5.70758,4.82914 -6.18702,4.41308 -1.01542,-0.8812 6.189,-16.76182 14.64253,-32.27633 7.12562,-13.077479 13.60969,-20.993565 17.19579,-20.993565 7.84924,0 2.09812,11.642264 -15.66828,31.718195 -11.43029,12.91615 -11.93668,13.79792 -5.30978,9.24611 6.82264,-4.6863 8.49637,-3.41997 4.48911,3.39639 -1.59884,2.71956 -2.60644,5.20544 -2.23918,5.52415 1.25032,1.08497 6.16659,-1.9683 10.90626,-6.77349 5.87837,-5.95955 7.59157,-4.98498 3.05247,1.73637 -1.86995,2.76894 -3.39991,5.4035 -3.39991,5.85456 0,1.72166 6.78928,-3.14167 9.87433,-7.07317 4.13643,-5.27144 7.70171,-5.73187 4.64341,-0.59971 -2.26577,3.80222 -2.80585,8.43781 -0.98311,8.43781 1.94995,0 8.53369,-6.63225 8.53369,-8.59654 0,-2.80637 3.35756,-4.70644 9.60074,-5.43314 4.39945,-0.51205 5.57117,-0.26464 5.57117,1.17645 0,2.11142 -4.21987,3.88487 -5.4068,2.27224 -1.16042,-1.57658 -7.00661,0.60614 -7.00661,2.61594 0,3.78662 3.69867,4.69329 10.79811,2.64701 6.46217,-1.86262 6.93071,-2.30286 10.62712,-9.98512 10.8927,-22.638592 20.46439,-36.164055 25.59246,-36.164055 6.59868,0 0.6403,12.5049 -13.94274,29.261915 -4.55334,5.23209 -8.78263,9.81028 -9.39848,10.17376 -0.61586,0.36372 -1.54075,1.64923 -2.05533,2.85722 -0.69895,1.64099 0.41131,1.2708 4.39033,-1.46408 2.92916,-2.01325 5.69507,-3.33998 6.14646,-2.94829 0.45145,0.39178 -0.71356,3.33969 -2.58882,6.55101 -4.62412,7.91886 -1.52771,7.86398 8.23176,-0.14569 9.84321,-8.07851 17.05177,-8.00246 13.16576,0.13889 -3.89136,8.1525 5.75841,7.50542 14.89341,-0.99866 3.22404,-3.00138 5.86186,-4.68209 5.86186,-3.7349 0,0.94717 -0.73447,2.3595 -1.63208,3.13849 -0.89774,0.77898 -1.19872,1.79248 -0.66899,2.25219 0.52975,0.4597 3.00059,-0.87787 5.49078,-2.97235 5.00757,-4.21183 8.74592,-5.10637 7.16134,-1.71355 -2.83364,6.06711 -3.68705,8.87495 -2.90385,9.55461 1.04182,0.90406 10.46469,-6.7876 10.52641,-8.59247 0.0262,-0.69378 1.47449,-3.79551 3.22391,-6.89278 l 3.18077,-5.63141 -7.70653,-0.42614 -7.70649,-0.42615 7.76708,-0.22618 c 7.09284,-0.20673 8.08059,-0.58306 11.37894,-4.33567 1.98652,-2.26011 3.61188,-4.87237 3.61188,-5.80497 0,-4.17769 16.63227,-19.774902 29.90196,-28.04118 10.01048,-6.235872 23.76472,-11.93527 37.28447,-15.4495545 9.78022,-2.542264 15.18504,-3.179574 27.98301,-3.299541 18.41053,-0.172816 27.60392,1.76404 38.1109,8.0284115 10.20655,6.085275 14.75627,12.439846 15.3728,21.471031 0.45458,6.658178 0.0626,8.059232 -3.6631,13.092182 -5.26901,7.117971 -13.16517,12.105421 -24.05498,15.193751 -8.2044,2.32674 -21.40318,4.53073 -31.07106,5.18825 l -4.61589,0.31395 18.9292,17.10285 c 10.41106,9.40663 18.46635,17.485751 17.90065,17.953691 -0.56566,0.46792 -10.12198,-7.363021 -21.23617,-17.402111 -11.11422,-10.03908 -21.14665,-18.25291 -22.29428,-18.25291 -1.14766,0 -5.3344,-0.73106 -9.30387,-1.62459 l -7.21728,-1.62461 -18.13836,32.14586 C 299.23683,126.39278 294.69721,133.30662 294.69721,129.34307 Z M 166.38552,86.118799 c 1.11588,-0.61247 1.56665,-1.5147 1.00156,-2.00506 -0.56503,-0.49034 -2.07655,0.0189 -3.35892,1.13184 -2.4929,2.16331 -1.0006,2.71606 2.35736,0.87322 z m 48.33704,-5.15461 c 3.00219,-4.28404 2.75588,-5.01423 -1.31321,-3.89346 -2.73896,0.75438 -6.98519,6.2156 -6.98519,8.98397 0,2.30024 5.47086,-1.05577 8.2984,-5.09051 z m 56.50666,-15.53889 c 0.0112,-0.49372 -0.89784,-0.8977 -2.02035,-0.8977 -1.83205,0 -7.69081,8.077 -7.5622,10.42529 0.0635,1.16184 9.55393,-8.27401 9.58255,-9.52759 z m -130.70305,-8.07917 c 7.32225,-9.124743 10.72731,-14.661347 10.72731,-17.442361 0,-1.664387 -0.35656,-1.744356 -2.11917,-0.475136 -2.5467,1.834162 -10.36821,13.814447 -14.43262,22.106697 -3.39547,6.92735 -2.68759,6.41826 5.82448,-4.1892 z m 67.24569,-5.386088 c 2.95124,-3.949827 5.8103,-8.79731 6.35344,-10.772217 0.98587,-3.584709 0.98265,-3.586973 -1.94365,-1.337221 -2.67687,2.057958 -16.79159,24.419686 -16.79159,26.602596 0,1.17264 5.39487,-5.14212 12.3818,-14.493158 z m 138.68768,12.623288 c -0.44726,-0.62766 -2.62379,-2.26024 -4.83733,-3.62806 l -4.02453,-2.48684 -1.51119,2.45033 c -1.27914,2.07413 -1.02543,2.61949 1.65257,3.55216 4.22012,1.46976 9.73784,1.54088 8.72048,0.11257 z m -72.45122,-1.75324 c 0,-0.27547 0.37687,-1.3525 0.83718,-2.39379 1.25192,-2.8311 -3.19634,-2.38352 -4.975,0.50057 -1.25152,2.02936 -1.04896,2.39384 1.33073,2.39384 1.54387,0 2.80709,-0.22528 2.80709,-0.50062 z m 60.04335,-5.24523 c -1.54054,-1.33686 -4.76092,1.01517 -3.93796,2.87616 0.81646,1.84646 1.03621,1.83297 2.72103,-0.16649 1.00805,-1.19635 1.55565,-2.41564 1.21693,-2.70965 z m -55.90557,-3.30164 c 0,-1.02631 -0.62064,-1.533153 -1.3793,-1.12627 -0.75858,0.40669 -1.37925,1.24657 -1.37925,1.866 0,0.61945 0.62067,1.12629 1.37925,1.12629 0.75866,0 1.3793,-0.83972 1.3793,-1.86602 z M 8.1629867,124.44452 c -5.9382042,-1.27792 -8.85347098,-3.52253 -8.35067664,-6.42949 0.87931986,-5.08411 13.63402594,-9.99715 35.53067894,-13.68614 8.769212,-1.47738 12.457569,-2.60668 12.460858,-3.81526 C 47.815047,96.427369 41.287084,88.003399 26.410703,72.905969 7.4097678,53.622699 0.91335252,43.618326 0.91335252,33.640341 c 0,-6.272378 0.32579688,-6.898324 6.08421878,-11.686322 8.9525767,-7.443944 19.4751257,-9.060874 41.7454767,-6.414788 33.942977,4.032981 63.817672,22.903764 63.877472,40.349208 0.0365,10.91137 -10.94691,21.80522 -21.986331,21.80522 -6.027137,0 -5.19369,-1.95089 1.213373,-2.83994 6.829265,-0.94768 14.461798,-6.99862 16.362358,-12.97175 C 111.15003,52.641417 105.75475,42.161976 94.199552,34.669321 77.241057,23.673002 57.076483,17.822284 35.263544,17.569179 23.806875,17.43618 21.120314,17.806224 15.264213,20.324876 2.2237329,25.932982 0.46289622,35.711447 9.9804293,49.667135 12.636301,53.561429 21.662306,63.749589 30.038214,72.307529 c 8.64973,8.83775 16.820597,18.50847 18.913262,22.38509 2.969886,5.501721 4.219336,6.724321 6.44293,6.304751 14.918559,-2.815321 66.805514,-7.292001 70.450334,-6.078281 4.90113,1.6321 -0.33207,3.12204 -10.96612,3.12204 -10.73291,0 -30.312221,1.82637 -52.932704,4.937631 -8.755135,1.2042 -10.000331,1.69013 -10.004851,3.9042 -0.0112,5.03075 -5.068316,9.97178 -14.02838,13.70388 -9.372219,3.90383 -21.954112,5.53532 -29.7496983,3.85768 z m 28.7354053,-6.3494 c 5.349654,-2.27991 8.49809,-4.55562 10.284005,-7.43346 1.415686,-2.2812 2.186593,-4.48377 1.713144,-4.89467 -0.473336,-0.41076 -7.188647,0.37277 -14.922562,1.74175 -16.819785,2.97691 -30.3011217,7.84584 -30.3011217,10.9436 0,3.03663 2.0462466,3.48755 14.4823207,3.19138 8.839043,-0.21034 12.56797,-0.91646 18.744214,-3.5486 z M 413.81312,91.458159 c -0.43685,-0.9875 -2.23487,-1.7954 -3.99602,-1.7954 -2.78723,0 -7.53693,-2.7181 -7.53693,-4.31313 0,-0.30311 0.89936,-2.41923 1.99851,-4.70214 2.65544,-5.51509 5.10346,-5.46226 3.14759,0.0678 -2.19607,6.20948 -0.083,7.48618 7.97269,4.81652 4.99691,-1.65605 6.30097,-2.65191 6.11804,-4.67227 -0.12776,-1.41217 -0.16374,-3.18817 -0.0798,-3.94666 0.17835,-1.61133 7.40197,-4.00707 12.08219,-4.00707 3.66973,0 4.43675,2.93692 1.06068,4.06117 -3.15964,1.05214 -4.99513,0.89172 -4.1045,-0.35873 0.42486,-0.59693 -0.52182,-0.79148 -2.10421,-0.43247 -3.82747,0.86856 -4.90124,3.66233 -2.28136,5.9358 1.90561,1.65371 2.80254,1.64167 8.91279,-0.11941 6.34352,-1.82842 7.00738,-2.41274 10.01303,-8.81378 5.47515,-11.6601 16.18935,-29.616169 20.04313,-33.590657 4.70331,-4.850564 8.94303,-5.076037 8.94303,-0.475644 0,5.158767 -13.03646,23.207631 -26.05405,36.071541 -4.62602,4.57135 -3.38022,5.41395 2.1529,1.45612 2.78492,-1.99209 5.57178,-3.34936 6.19301,-3.01618 0.62124,0.3334 -0.42642,3.27036 -2.32816,6.52706 -2.9043,4.97362 -3.10471,5.92129 -1.25206,5.92129 1.21313,0 5.32539,-2.69303 9.13837,-5.98458 7.13541,-6.15955 10.59578,-7.25653 13.45609,-4.26568 1.1968,1.25136 1.24272,2.36931 0.16898,4.11052 -2.38824,3.87247 -1.78635,6.14019 1.62837,6.13526 4.47425,-0.004 11.85289,-4.25808 14.56304,-8.3913 2.339,-3.56731 4.40193,-4.65862 4.40193,-2.32876 0,0.68456 -1.24135,3.35614 -2.75855,5.93691 -3.59882,6.12159 -3.51381,6.38492 1.3559,4.19962 4.65549,-2.08912 8.29897,-7.35341 8.29897,-11.99078 0,-1.77677 0.59437,-2.80354 1.37928,-2.3826 2.23319,1.19771 1.56578,6.91203 -1.23844,10.60306 -4.95165,6.51762 -14.44611,10.10478 -16.20678,6.12313 -0.51243,-1.15872 -1.37853,-1.43769 -2.3704,-0.76346 -3.04933,2.07264 -8.69275,2.54433 -11.22413,0.93809 -2.12871,-1.35074 -3.14017,-1.30018 -6.49818,0.32481 -3.67537,1.77878 -4.1086,1.77246 -5.712,-0.0838 -1.19003,-1.37749 -2.36009,-1.66524 -3.72459,-0.91602 -3.03112,1.66425 -8.19074,1.33714 -9.03532,-0.57283 -0.41394,-0.93602 -0.0528,-2.95583 0.80247,-4.48844 0.9518,-1.7056 -0.55107,-0.81329 -3.8742,2.30028 -6.22463,5.83218 -7.78177,6.3296 -6.55692,2.0946 0.47594,-1.64575 0.63593,-2.99228 0.35552,-2.99228 -2.81959,0 -10.08238,3.34599 -13.27329,6.11504 -4.33151,3.75889 -10.66142,4.6388 -11.97644,1.66493 z m 57.63236,-11.07147 c 2.48236,-3.41517 2.55038,-3.88999 0.55731,-3.88999 -3.05611,0 -9.03482,5.75663 -9.03482,8.69916 0,2.12016 0.29244,2.19502 2.82501,0.72293 1.55374,-0.90317 4.09742,-3.39262 5.6525,-5.5321 z m -12.13389,-22.14288 c 3.37582,-4.1144 7.5586,-10.027261 9.29504,-13.139756 3.27766,-5.875014 2.58263,-9.293888 -1.03904,-5.111257 -2.61557,3.020612 -15.87807,25.731703 -15.02643,25.731703 0.34772,0 3.39455,-3.36633 6.77043,-7.48069 z m -50.76582,15.9418 c -0.43634,-0.61284 -0.16267,-1.45253 0.60825,-1.866 0.77094,-0.41348 1.40178,0.0876 1.40178,1.1142 0,2.10241 -0.82767,2.41197 -2.01003,0.7518 z"
       id="path330" /></g></svg>
